# xmcd CD database file
#
# Track frame offsets:
#	187
#	17040
#	35522
#	54935
#	72192
#	89430
#	107672
#	124665
#	142940
#	159325
#
# Disc length: 2342 seconds
#
# Revision: 0
# Processed by: cddbd v1.5.1PL2 Copyright (c) Steve Scherf et al.
# Submitted via: CDex 1.51
#
DISCID=7909240a
DTITLE=Inst. - CRYSTAL DEW ガラスが奏でる飛鳥涼作品集
DYEAR=1992
DGENRE=Instrumental
TTITLE0=はじまりはいつも雨
TTITLE1=LOVE SONG
TTITLE2=SAY YES
TTITLE3=太陽と埃の中で
TTITLE4=黄昏を待たずに
TTITLE5=PRIDE
TTITLE6=男と女
TTITLE7=恋人はワイン色
TTITLE8=MOON LIGHT BLUES
TTITLE9=モーニング ムーン
EXTD=YEAR: 1992
EXTT0=
EXTT1=
EXTT2=
EXTT3=
EXTT4=
EXTT5=
EXTT6=
EXTT7=
EXTT8=
EXTT9=
PLAYORDER=
